<svg width="891" height="148" viewBox="0 0 891 148" fill="none" xmlns="http://www.w3.org/2000/svg">
<path d="M92.6599 22.7447H76.6249C76.5112 21.418 76.2079 20.2144 75.7151 19.134C75.2412 18.0536 74.5779 17.1249 73.7249 16.3478C72.891 15.5517 71.8769 14.9452 70.6828 14.5282C69.4887 14.0923 68.1335 13.8743 66.6172 13.8743C63.9636 13.8743 61.7176 14.5187 59.8791 15.8076C58.0595 17.0965 56.6759 18.9445 55.7282 21.3516C54.7994 23.7588 54.335 26.6492 54.335 30.0231C54.335 33.5864 54.8089 36.5716 55.7566 38.9788C56.7232 41.367 58.1164 43.1676 59.9359 44.3807C61.7555 45.5748 63.9447 46.1718 66.5035 46.1718C67.9629 46.1718 69.2707 45.9917 70.4269 45.6316C71.5831 45.2525 72.5877 44.7124 73.4406 44.0111C74.2935 43.3098 74.9854 42.4663 75.5161 41.4807C76.0657 40.4762 76.4353 39.3484 76.6249 38.0974L92.6599 38.2112C92.4704 40.6752 91.7786 43.1866 90.5845 45.7453C89.3904 48.2852 87.694 50.6355 85.4953 52.7962C83.3156 54.938 80.6147 56.6628 77.3925 57.9706C74.1703 59.2785 70.4269 59.9324 66.1623 59.9324C60.8173 59.9324 56.0219 58.7857 51.7763 56.4922C47.5495 54.1988 44.2042 50.825 41.7401 46.3708C39.2951 41.9167 38.0726 36.4674 38.0726 30.0231C38.0726 23.5408 39.3235 18.0821 41.8254 13.6468C44.3274 9.19266 47.7012 5.82834 51.9468 3.55387C56.1925 1.26044 60.931 0.113724 66.1623 0.113724C69.8394 0.113724 73.2226 0.616003 76.3121 1.62056C79.4016 2.62512 82.112 4.09405 84.4434 6.02735C86.7747 7.9417 88.6512 10.3015 90.0727 13.1067C91.4942 15.9118 92.3567 19.1245 92.6599 22.7447ZM98.4578 59.1363V15.4664H113.697V23.7682H114.152C114.948 20.6977 116.208 18.4517 117.933 17.0301C119.677 15.6086 121.714 14.8978 124.046 14.8978C124.728 14.8978 125.401 14.9547 126.064 15.0684C126.747 15.1632 127.401 15.3053 128.026 15.4949V28.8858C127.249 28.6205 126.292 28.4214 125.154 28.2888C124.017 28.1561 123.041 28.0897 122.226 28.0897C120.691 28.0897 119.307 28.4404 118.075 29.1417C116.862 29.824 115.905 30.7907 115.204 32.0416C114.502 33.2737 114.152 34.7236 114.152 36.3916V59.1363H98.4578ZM149.994 59.9324C145.331 59.9324 141.313 59.0415 137.939 57.2599C134.584 55.4592 131.997 52.8815 130.178 49.5267C128.377 46.1529 127.477 42.1157 127.477 37.4151C127.477 32.9041 128.386 28.9616 130.206 25.5878C132.026 22.214 134.594 19.5889 137.911 17.7125C141.228 15.836 145.142 14.8978 149.653 14.8978C152.951 14.8978 155.936 15.4096 158.609 16.4331C161.281 17.4566 163.565 18.9445 165.46 20.8967C167.356 22.83 168.815 25.1803 169.839 27.9476C170.862 30.7149 171.374 33.8328 171.374 37.3014V40.9405H132.367V32.2975H156.931C156.912 31.0466 156.59 29.9472 155.964 28.9995C155.358 28.0329 154.533 27.2842 153.491 26.7535C152.467 26.2038 151.302 25.929 149.994 25.929C148.724 25.929 147.558 26.2038 146.497 26.7535C145.436 27.2842 144.583 28.0234 143.938 28.9711C143.313 29.9188 142.981 31.0276 142.943 32.2975V41.6229C142.943 43.0255 143.237 44.2764 143.824 45.3757C144.412 46.4751 145.256 47.3375 146.355 47.963C147.454 48.5884 148.781 48.9012 150.335 48.9012C151.416 48.9012 152.401 48.7495 153.292 48.4463C154.202 48.143 154.979 47.7071 155.623 47.1385C156.268 46.5509 156.742 45.8496 157.045 45.0346H171.374C170.881 48.0672 169.716 50.7018 167.877 52.9384C166.039 55.156 163.603 56.8808 160.57 58.1128C157.557 59.3258 154.031 59.9324 149.994 59.9324ZM188.345 59.8187C185.559 59.8187 183.095 59.3638 180.953 58.454C178.83 57.5252 177.162 56.1226 175.949 54.2462C174.736 52.3698 174.13 49.9816 174.13 47.0816C174.13 44.6934 174.537 42.6559 175.352 40.969C176.167 39.2631 177.305 37.87 178.764 36.7896C180.224 35.7092 181.92 34.8847 183.853 34.3161C185.805 33.7475 187.909 33.3779 190.165 33.2073C192.61 33.0178 194.572 32.7903 196.05 32.525C197.547 32.2407 198.628 31.8521 199.291 31.3593C199.955 30.8475 200.286 30.1747 200.286 29.3407V29.227C200.286 28.0897 199.85 27.2179 198.978 26.6113C198.107 26.0048 196.988 25.7016 195.624 25.7016C194.126 25.7016 192.904 26.0332 191.956 26.6966C191.027 27.3411 190.468 28.3361 190.279 29.6819H175.836C176.025 27.0283 176.869 24.5833 178.366 22.3467C179.882 20.0912 182.09 18.2906 184.99 16.9448C187.89 15.5801 191.511 14.8978 195.851 14.8978C198.978 14.8978 201.784 15.2674 204.267 16.0066C206.75 16.7269 208.863 17.7409 210.607 19.0487C212.35 20.3376 213.677 21.8539 214.587 23.5977C215.516 25.3225 215.98 27.1989 215.98 29.227V59.1363H201.31V52.9952H200.969C200.097 54.6253 199.035 55.9426 197.784 56.9471C196.552 57.9517 195.14 58.6814 193.548 59.1363C191.975 59.5912 190.241 59.8187 188.345 59.8187ZM193.463 49.9247C194.657 49.9247 195.775 49.6783 196.818 49.1855C197.879 48.6927 198.742 47.9819 199.405 47.0532C200.068 46.1244 200.4 44.9967 200.4 43.6699V40.0307C199.983 40.2013 199.538 40.3624 199.064 40.5141C198.609 40.6657 198.116 40.8078 197.585 40.9405C197.074 41.0732 196.524 41.1964 195.936 41.3101C195.368 41.4238 194.771 41.5281 194.145 41.6229C192.932 41.8124 191.937 42.1251 191.16 42.5611C190.402 42.9781 189.833 43.4993 189.454 44.1248C189.094 44.7313 188.914 45.4137 188.914 46.1718C188.914 47.3849 189.34 48.3136 190.193 48.958C191.046 49.6025 192.136 49.9247 193.463 49.9247ZM247.92 15.4664V26.8388H219.148V15.4664H247.92ZM224.721 5.00384H240.415V45.0914C240.415 45.698 240.519 46.2097 240.727 46.6267C240.936 47.0247 241.258 47.328 241.694 47.5365C242.13 47.726 242.689 47.8208 243.371 47.8208C243.845 47.8208 244.395 47.7639 245.02 47.6502C245.665 47.5365 246.139 47.4417 246.442 47.3659L248.716 58.3971C248.015 58.6056 247.011 58.8615 245.703 59.1647C244.414 59.468 242.879 59.667 241.097 59.7618C237.496 59.9513 234.472 59.5817 232.027 58.653C229.582 57.7053 227.744 56.2174 226.512 54.1893C225.28 52.1613 224.683 49.6214 224.721 46.5698V5.00384ZM273.179 59.9324C268.517 59.9324 264.498 59.0415 261.124 57.2599C257.77 55.4592 255.182 52.8815 253.363 49.5267C251.562 46.1529 250.662 42.1157 250.662 37.4151C250.662 32.9041 251.572 28.9616 253.391 25.5878C255.211 22.214 257.779 19.5889 261.096 17.7125C264.413 15.836 268.327 14.8978 272.838 14.8978C276.136 14.8978 279.121 15.4096 281.794 16.4331C284.466 17.4566 286.75 18.9445 288.646 20.8967C290.541 22.83 292 25.1803 293.024 27.9476C294.047 30.7149 294.559 33.8328 294.559 37.3014V40.9405H255.552V32.2975H280.116C280.097 31.0466 279.775 29.9472 279.15 28.9995C278.543 28.0329 277.719 27.2842 276.676 26.7535C275.653 26.2038 274.487 25.929 273.179 25.929C271.909 25.929 270.744 26.2038 269.682 26.7535C268.621 27.2842 267.768 28.0234 267.123 28.9711C266.498 29.9188 266.166 31.0276 266.128 32.2975V41.6229C266.128 43.0255 266.422 44.2764 267.01 45.3757C267.597 46.4751 268.441 47.3375 269.54 47.963C270.639 48.5884 271.966 48.9012 273.52 48.9012C274.601 48.9012 275.586 48.7495 276.477 48.4463C277.387 48.143 278.164 47.7071 278.809 47.1385C279.453 46.5509 279.927 45.8496 280.23 45.0346H294.559C294.066 48.0672 292.901 50.7018 291.062 52.9384C289.224 55.156 286.788 56.8808 283.755 58.1128C280.742 59.3258 277.216 59.9324 273.179 59.9324ZM332.475 60.0461C328.305 60.0461 324.713 59.3069 321.7 57.8285C318.686 56.3501 316.374 54.3694 314.763 51.8864C313.151 49.4035 312.346 46.6646 312.346 43.6699C312.346 41.4902 312.763 39.5664 313.597 37.8984C314.431 36.2115 315.596 34.6668 317.094 33.2642C318.591 31.8616 320.344 30.4779 322.354 29.1133L335.546 20.9252C336.872 20.0912 337.773 19.2288 338.246 18.3379C338.72 17.4282 338.957 16.6226 338.957 15.9213C338.957 14.9926 338.616 14.1681 337.934 13.4478C337.251 12.7276 336.19 12.3769 334.749 12.3959C333.859 12.3959 333.091 12.5665 332.447 12.9076C331.802 13.2299 331.3 13.6847 330.94 14.2723C330.599 14.8599 330.428 15.5612 330.428 16.3762C330.428 17.4945 330.75 18.6412 331.395 19.8163C332.039 20.9725 332.92 22.2235 334.039 23.5692C335.157 24.915 336.417 26.4218 337.82 28.0897L366.023 59.1363H350.33L326.675 34.1171C325.519 32.8851 324.239 31.3783 322.837 29.5966C321.434 27.796 320.221 25.7679 319.198 23.5124C318.193 21.2568 317.691 18.8023 317.691 16.1488C317.691 13.1919 318.402 10.491 319.823 8.04595C321.245 5.60089 323.235 3.64864 325.794 2.18918C328.352 0.729729 331.338 1.90881e-06 334.749 1.90881e-06C338.01 1.90881e-06 340.815 0.672867 343.165 2.0186C345.534 3.36433 347.354 5.15547 348.624 7.39204C349.913 9.62861 350.557 12.0926 350.557 14.7841C350.557 17.4945 349.884 20.0248 348.538 22.3751C347.212 24.7254 345.307 26.7819 342.824 28.5446L330.769 37.0739C329.84 37.7184 329.035 38.4576 328.352 39.2915C327.689 40.1255 327.357 41.2059 327.357 42.5327C327.357 43.632 327.613 44.5702 328.125 45.3473C328.637 46.1244 329.357 46.7215 330.286 47.1385C331.233 47.5554 332.342 47.7639 333.612 47.7639C335.546 47.7639 337.479 47.2996 339.412 46.3708C341.364 45.4231 343.146 44.1058 344.757 42.4189C346.368 40.7131 347.657 38.704 348.624 36.3916C349.609 34.0602 350.102 31.5204 350.102 28.7721H362.498C362.498 32.1459 362.147 35.3965 361.446 38.5239C360.745 41.6513 359.617 44.5133 358.063 47.11C356.509 49.7067 354.462 51.8959 351.922 53.6776C351.126 54.0756 350.349 54.4547 349.59 54.8148C348.832 55.1749 348.055 55.554 347.259 55.952C344.928 57.4494 342.492 58.5108 339.952 59.1363C337.412 59.7428 334.92 60.0461 332.475 60.0461ZM382.055 59.1363V0.90979H397.862V46.3993H421.403V59.1363H382.055ZM438.587 59.8187C435.801 59.8187 433.337 59.3638 431.195 58.454C429.073 57.5252 427.405 56.1226 426.192 54.2462C424.978 52.3698 424.372 49.9816 424.372 47.0816C424.372 44.6934 424.779 42.6559 425.594 40.969C426.409 39.2631 427.547 37.87 429.006 36.7896C430.466 35.7092 432.162 34.8847 434.095 34.3161C436.048 33.7475 438.151 33.3779 440.407 33.2073C442.852 33.0178 444.814 32.7903 446.292 32.525C447.79 32.2407 448.87 31.8521 449.533 31.3593C450.197 30.8475 450.528 30.1747 450.528 29.3407V29.227C450.528 28.0897 450.092 27.2179 449.221 26.6113C448.349 26.0048 447.23 25.7016 445.866 25.7016C444.368 25.7016 443.146 26.0332 442.198 26.6966C441.269 27.3411 440.71 28.3361 440.521 29.6819H426.078C426.267 27.0283 427.111 24.5833 428.608 22.3467C430.124 20.0912 432.333 18.2906 435.233 16.9448C438.133 15.5801 441.753 14.8978 446.093 14.8978C449.221 14.8978 452.026 15.2674 454.509 16.0066C456.992 16.7269 459.105 17.7409 460.849 19.0487C462.593 20.3376 463.919 21.8539 464.829 23.5977C465.758 25.3225 466.222 27.1989 466.222 29.227V59.1363H451.552V52.9952H451.211C450.339 54.6253 449.277 55.9426 448.026 56.9471C446.794 57.9517 445.382 58.6814 443.79 59.1363C442.217 59.5912 440.483 59.8187 438.587 59.8187ZM443.705 49.9247C444.899 49.9247 446.017 49.6783 447.06 49.1855C448.121 48.6927 448.984 47.9819 449.647 47.0532C450.31 46.1244 450.642 44.9967 450.642 43.6699V40.0307C450.225 40.2013 449.78 40.3624 449.306 40.5141C448.851 40.6657 448.358 40.8078 447.827 40.9405C447.316 41.0732 446.766 41.1964 446.178 41.3101C445.61 41.4238 445.013 41.5281 444.387 41.6229C443.174 41.8124 442.179 42.1251 441.402 42.5611C440.644 42.9781 440.075 43.4993 439.696 44.1248C439.336 44.7313 439.156 45.4137 439.156 46.1718C439.156 47.3849 439.582 48.3136 440.435 48.958C441.288 49.6025 442.378 49.9247 443.705 49.9247ZM500.437 40.0307V15.4664H516.131V59.1363H501.233V50.8345H500.778C499.83 53.6207 498.172 55.8004 495.803 57.3736C493.433 58.9278 490.619 59.7049 487.359 59.7049C484.307 59.7049 481.635 59.0036 479.341 57.601C477.067 56.1984 475.294 54.2651 474.025 51.8011C472.774 49.3371 472.139 46.513 472.12 43.3287V15.4664H487.814V40.0307C487.832 42.1915 488.382 43.8879 489.463 45.1199C490.562 46.3519 492.097 46.9679 494.068 46.9679C495.376 46.9679 496.504 46.693 497.452 46.1434C498.418 45.5748 499.157 44.7787 499.669 43.7552C500.2 42.7127 500.456 41.4712 500.437 40.0307ZM538.205 34.572V59.1363H522.511V15.4664H537.409V23.7682H537.864C538.812 21.001 540.48 18.8307 542.868 17.2576C545.275 15.6844 548.08 14.8978 551.284 14.8978C554.373 14.8978 557.055 15.6086 559.33 17.0301C561.623 18.4327 563.395 20.366 564.646 22.83C565.916 25.294 566.541 28.1087 566.523 31.274V59.1363H550.829V34.572C550.848 32.4112 550.298 30.7149 549.18 29.4829C548.08 28.2509 546.545 27.6349 544.574 27.6349C543.285 27.6349 542.157 27.9192 541.191 28.4878C540.243 29.0374 539.513 29.8335 539.001 30.876C538.49 31.8995 538.224 33.1315 538.205 34.572ZM593.708 59.9324C588.969 59.9324 584.913 58.9942 581.539 57.1177C578.165 55.2223 575.578 52.5877 573.778 49.2139C571.977 45.8212 571.077 41.8882 571.077 37.4151C571.077 32.942 571.977 29.0185 573.778 25.6447C575.578 22.2519 578.165 19.6173 581.539 17.7409C584.913 15.8455 588.969 14.8978 593.708 14.8978C597.991 14.8978 601.697 15.6749 604.824 17.2291C607.97 18.7644 610.406 20.9441 612.131 23.7682C613.856 26.5734 614.728 29.8714 614.747 33.6622H600.19C599.981 31.3688 599.318 29.625 598.2 28.4309C597.1 27.2179 595.679 26.6113 593.935 26.6113C592.57 26.6113 591.376 27.0094 590.353 27.8054C589.329 28.5825 588.533 29.7672 587.965 31.3593C587.396 32.9325 587.112 34.9132 587.112 37.3014C587.112 39.6896 587.396 41.6797 587.965 43.2719C588.533 44.845 589.329 46.0297 590.353 46.8257C591.376 47.6028 592.57 47.9914 593.935 47.9914C595.091 47.9914 596.115 47.726 597.006 47.1953C597.896 46.6457 598.617 45.8496 599.166 44.8071C599.735 43.7457 600.076 42.4568 600.19 40.9405H614.747C614.69 44.7882 613.808 48.143 612.102 51.0051C610.397 53.8482 607.98 56.0468 604.853 57.601C601.744 59.1553 598.029 59.9324 593.708 59.9324ZM635.314 34.572V59.1363H619.62V0.90979H634.746V23.7682H635.201C636.186 20.982 637.826 18.8118 640.119 17.2576C642.413 15.6844 645.17 14.8978 648.392 14.8978C651.482 14.8978 654.164 15.5991 656.438 17.0017C658.732 18.4043 660.504 20.3376 661.755 22.8016C663.025 25.2656 663.65 28.0897 663.631 31.274V59.1363H647.938V34.572C647.957 32.4112 647.416 30.7149 646.317 29.4829C645.237 28.2509 643.692 27.6349 641.683 27.6349C640.413 27.6349 639.295 27.9192 638.328 28.4878C637.38 29.0374 636.641 29.8335 636.11 30.876C635.599 31.8995 635.333 33.1315 635.314 34.572ZM693.679 75.5125C691.878 75.5125 690.163 75.3704 688.533 75.0861C686.903 74.8207 685.472 74.4511 684.24 73.9772L687.652 62.8323C688.941 63.2872 690.116 63.581 691.177 63.7137C692.257 63.8464 693.177 63.7705 693.935 63.4862C694.712 63.2019 695.271 62.6617 695.612 61.8657L695.953 61.0696L680.601 15.4664H696.977L704.028 45.7169H704.483L711.647 15.4664H728.137L712.216 62.7755C711.42 65.1826 710.264 67.3434 708.747 69.2577C707.25 71.191 705.279 72.7168 702.834 73.8351C700.389 74.9534 697.337 75.5125 693.679 75.5125ZM750.709 59.9324C745.971 59.9324 741.915 58.9942 738.541 57.1177C735.167 55.2223 732.58 52.5877 730.779 49.2139C728.979 45.8212 728.078 41.8882 728.078 37.4151C728.078 32.942 728.979 29.0185 730.779 25.6447C732.58 22.2519 735.167 19.6173 738.541 17.7409C741.915 15.8455 745.971 14.8978 750.709 14.8978C755.448 14.8978 759.504 15.8455 762.878 17.7409C766.252 19.6173 768.839 22.2519 770.639 25.6447C772.44 29.0185 773.34 32.942 773.34 37.4151C773.34 41.8882 772.44 45.8212 770.639 49.2139C768.839 52.5877 766.252 55.2223 762.878 57.1177C759.504 58.9942 755.448 59.9324 750.709 59.9324ZM750.823 48.3326C752.15 48.3326 753.297 47.8871 754.263 46.9963C755.23 46.1055 755.979 44.8356 756.509 43.1866C757.04 41.5376 757.305 39.5758 757.305 37.3014C757.305 35.0079 757.04 33.0462 756.509 31.4162C755.979 29.7672 755.23 28.4973 754.263 27.6064C753.297 26.7156 752.15 26.2702 750.823 26.2702C749.421 26.2702 748.217 26.7156 747.212 27.6064C746.208 28.4973 745.44 29.7672 744.909 31.4162C744.379 33.0462 744.113 35.0079 744.113 37.3014C744.113 39.5758 744.379 41.5376 744.909 43.1866C745.44 44.8356 746.208 46.1055 747.212 46.9963C748.217 47.8871 749.421 48.3326 750.823 48.3326ZM806.425 40.0307V15.4664H822.119V59.1363H807.221V50.8345H806.766C805.818 53.6207 804.16 55.8004 801.791 57.3736C799.421 58.9278 796.607 59.7049 793.347 59.7049C790.295 59.7049 787.623 59.0036 785.329 57.601C783.055 56.1984 781.283 54.2651 780.013 51.8011C778.762 49.3371 778.127 46.513 778.108 43.3287V15.4664H793.802V40.0307C793.821 42.1915 794.37 43.8879 795.451 45.1199C796.55 46.3519 798.085 46.9679 800.056 46.9679C801.364 46.9679 802.492 46.693 803.44 46.1434C804.406 45.5748 805.146 44.7787 805.657 43.7552C806.188 42.7127 806.444 41.4712 806.425 40.0307ZM828.499 59.1363V15.4664H843.738V23.7682H844.193C844.989 20.6977 846.25 18.4517 847.975 17.0301C849.718 15.6086 851.756 14.8978 854.087 14.8978C854.77 14.8978 855.443 14.9547 856.106 15.0684C856.788 15.1632 857.442 15.3053 858.068 15.4949V28.8858C857.291 28.6205 856.333 28.4214 855.196 28.2888C854.059 28.1561 853.083 28.0897 852.268 28.0897C850.732 28.0897 849.349 28.4404 848.117 29.1417C846.904 29.824 845.947 30.7907 845.245 32.0416C844.544 33.2737 844.193 34.7236 844.193 36.3916V59.1363H828.499ZM2.80357e-06 101.714V88.9774H50.607V101.714H33.0936V147.204H17.5134V101.714H2.80357e-06ZM69.8883 148C65.1498 148 61.0937 147.062 57.7199 145.185C54.3461 143.29 51.7589 140.655 49.9582 137.282C48.1576 133.889 47.2573 129.956 47.2573 125.483C47.2573 121.01 48.1576 117.086 49.9582 113.712C51.7589 110.32 54.3461 107.685 57.7199 105.808C61.0937 103.913 65.1498 102.965 69.8883 102.965C74.6268 102.965 78.6829 103.913 82.0567 105.808C85.4306 107.685 88.0178 110.32 89.8184 113.712C91.619 117.086 92.5193 121.01 92.5193 125.483C92.5193 129.956 91.619 133.889 89.8184 137.282C88.0178 140.655 85.4306 143.29 82.0567 145.185C78.6829 147.062 74.6268 148 69.8883 148ZM70.002 136.4C71.3288 136.4 72.4755 135.955 73.4422 135.064C74.4088 134.173 75.1575 132.903 75.6882 131.254C76.2189 129.605 76.4843 127.643 76.4843 125.369C76.4843 123.076 76.2189 121.114 75.6882 119.484C75.1575 117.835 74.4088 116.565 73.4422 115.674C72.4755 114.783 71.3288 114.338 70.002 114.338C68.5994 114.338 67.3959 114.783 66.3913 115.674C65.3868 116.565 64.6191 117.835 64.0884 119.484C63.5577 121.114 63.2923 123.076 63.2923 125.369C63.2923 127.643 63.5577 129.605 64.0884 131.254C64.6191 132.903 65.3868 134.173 66.3913 135.064C67.3959 135.955 68.5994 136.4 70.002 136.4ZM111.388 136.855L111.502 118.204H113.549L124.125 103.534H141.753L124.012 126.392H119.576L111.388 136.855ZM97.2866 147.204V88.9774H112.98V147.204H97.2866ZM124.239 147.204L114.231 129.918L124.467 118.773L142.207 147.204H124.239ZM163.365 148C158.703 148 154.684 147.109 151.31 145.327C147.956 143.527 145.368 140.949 143.549 137.594C141.748 134.22 140.848 130.183 140.848 125.483C140.848 120.972 141.758 117.029 143.577 113.655C145.397 110.282 147.965 107.657 151.282 105.78C154.599 103.904 158.513 102.965 163.024 102.965C166.322 102.965 169.307 103.477 171.98 104.501C174.652 105.524 176.936 107.012 178.832 108.964C180.727 110.898 182.186 113.248 183.21 116.015C184.233 118.782 184.745 121.9 184.745 125.369V129.008H145.738V120.365H170.302C170.283 119.114 169.961 118.015 169.336 117.067C168.729 116.1 167.905 115.352 166.862 114.821C165.839 114.271 164.673 113.997 163.365 113.997C162.095 113.997 160.93 114.271 159.868 114.821C158.807 115.352 157.954 116.091 157.309 117.039C156.684 117.986 156.352 119.095 156.314 120.365V129.69C156.314 131.093 156.608 132.344 157.196 133.443C157.783 134.543 158.627 135.405 159.726 136.031C160.825 136.656 162.152 136.969 163.706 136.969C164.787 136.969 165.772 136.817 166.663 136.514C167.573 136.211 168.35 135.775 168.995 135.206C169.639 134.618 170.113 133.917 170.416 133.102H184.745C184.252 136.135 183.087 138.769 181.248 141.006C179.41 143.224 176.974 144.948 173.941 146.18C170.928 147.393 167.402 148 163.365 148ZM205.242 122.64V147.204H189.548V103.534H204.446V111.836H204.901C205.848 109.069 207.516 106.898 209.905 105.325C212.312 103.752 215.117 102.965 218.32 102.965C221.41 102.965 224.092 103.676 226.366 105.098C228.66 106.5 230.432 108.434 231.683 110.898C232.953 113.362 233.578 116.176 233.559 119.342V147.204H217.865V122.64C217.884 120.479 217.335 118.782 216.216 117.55C215.117 116.318 213.582 115.702 211.61 115.702C210.322 115.702 209.194 115.987 208.227 116.555C207.279 117.105 206.55 117.901 206.038 118.944C205.526 119.967 205.261 121.199 205.242 122.64ZM275.093 148C270.354 148 266.298 147.062 262.924 145.185C259.55 143.29 256.963 140.655 255.163 137.282C253.362 133.889 252.462 129.956 252.462 125.483C252.462 121.01 253.362 117.086 255.163 113.712C256.963 110.32 259.55 107.685 262.924 105.808C266.298 103.913 270.354 102.965 275.093 102.965C279.831 102.965 283.887 103.913 287.261 105.808C290.635 107.685 293.222 110.32 295.023 113.712C296.823 117.086 297.724 121.01 297.724 125.483C297.724 129.956 296.823 133.889 295.023 137.282C293.222 140.655 290.635 143.29 287.261 145.185C283.887 147.062 279.831 148 275.093 148ZM275.206 136.4C276.533 136.4 277.68 135.955 278.647 135.064C279.613 134.173 280.362 132.903 280.893 131.254C281.423 129.605 281.689 127.643 281.689 125.369C281.689 123.076 281.423 121.114 280.893 119.484C280.362 117.835 279.613 116.565 278.647 115.674C277.68 114.783 276.533 114.338 275.206 114.338C273.804 114.338 272.6 114.783 271.596 115.674C270.591 116.565 269.824 117.835 269.293 119.484C268.762 121.114 268.497 123.076 268.497 125.369C268.497 127.643 268.762 129.605 269.293 131.254C269.824 132.903 270.591 134.173 271.596 135.064C272.6 135.955 273.804 136.4 275.206 136.4ZM318.185 122.64V147.204H302.491V103.534H317.389V111.836H317.844C318.791 109.069 320.459 106.898 322.848 105.325C325.255 103.752 328.06 102.965 331.263 102.965C334.353 102.965 337.035 103.676 339.309 105.098C341.602 106.5 343.375 108.434 344.626 110.898C345.896 113.362 346.521 116.176 346.502 119.342V147.204H330.808V122.64C330.827 120.479 330.277 118.782 329.159 117.55C328.06 116.318 326.525 115.702 324.553 115.702C323.265 115.702 322.137 115.987 321.17 116.555C320.222 117.105 319.493 117.901 318.981 118.944C318.469 119.967 318.204 121.199 318.185 122.64Z" fill="#DDDDDD"/>
<path d="M366.769 147.204V88.9774H408.733V101.714H382.577V111.722H406.573V124.459H382.577V134.467H408.62V147.204H366.769ZM430.893 88.9774L442.834 130.032H443.289L455.23 88.9774H473.085L453.865 147.204H432.258L413.039 88.9774H430.893ZM477.092 88.9774H496.766L510.299 121.957H510.981L524.514 88.9774H544.188V147.204H528.722V113.542H528.267L515.303 146.749H505.977L493.013 113.314H492.558V147.204H477.092V88.9774ZM582.055 139.243V97.1655H594.792V139.243H582.055ZM567.384 124.573V111.836H609.462V124.573H567.384ZM664.074 107.173C663.922 105.278 663.211 103.799 661.941 102.738C660.69 101.677 658.786 101.146 656.227 101.146C654.597 101.146 653.26 101.345 652.218 101.743C651.195 102.122 650.436 102.643 649.944 103.307C649.451 103.97 649.195 104.728 649.176 105.581C649.138 106.282 649.261 106.917 649.546 107.486C649.849 108.036 650.323 108.538 650.967 108.993C651.612 109.429 652.436 109.827 653.441 110.187C654.445 110.547 655.639 110.869 657.023 111.154L661.799 112.177C665.021 112.859 667.779 113.76 670.073 114.878C672.366 115.996 674.243 117.314 675.702 118.83C677.161 120.327 678.232 122.014 678.915 123.891C679.616 125.767 679.976 127.814 679.995 130.032C679.976 133.86 679.019 137.101 677.124 139.755C675.228 142.409 672.518 144.427 668.992 145.811C665.486 147.194 661.269 147.886 656.341 147.886C651.28 147.886 646.864 147.138 643.092 145.64C639.339 144.143 636.42 141.84 634.335 138.732C632.269 135.604 631.227 131.605 631.208 126.734H646.219C646.314 128.515 646.759 130.013 647.555 131.226C648.351 132.439 649.47 133.358 650.91 133.984C652.37 134.609 654.104 134.922 656.113 134.922C657.8 134.922 659.212 134.713 660.349 134.296C661.487 133.879 662.349 133.301 662.936 132.562C663.524 131.823 663.827 130.979 663.846 130.032C663.827 129.141 663.534 128.364 662.965 127.7C662.415 127.018 661.505 126.411 660.236 125.881C658.966 125.331 657.25 124.819 655.09 124.345L649.29 123.094C644.134 121.976 640.069 120.109 637.093 117.494C634.136 114.859 632.667 111.267 632.686 106.718C632.667 103.022 633.653 99.7906 635.643 97.0233C637.652 94.2371 640.429 92.0669 643.973 90.5127C647.536 88.9584 651.621 88.1813 656.227 88.1813C660.927 88.1813 664.993 88.9679 668.424 90.5411C671.854 92.1143 674.498 94.3319 676.356 97.1939C678.232 100.037 679.18 103.363 679.199 107.173H664.074ZM705.673 148C700.935 148 696.879 147.062 693.505 145.185C690.131 143.29 687.544 140.655 685.743 137.282C683.943 133.889 683.042 129.956 683.042 125.483C683.042 121.01 683.943 117.086 685.743 113.712C687.544 110.32 690.131 107.685 693.505 105.808C696.879 103.913 700.935 102.965 705.673 102.965C710.412 102.965 714.468 103.913 717.842 105.808C721.216 107.685 723.803 110.32 725.603 113.712C727.404 117.086 728.304 121.01 728.304 125.483C728.304 129.956 727.404 133.889 725.603 137.282C723.803 140.655 721.216 143.29 717.842 145.185C714.468 147.062 710.412 148 705.673 148ZM705.787 136.4C707.114 136.4 708.261 135.955 709.227 135.064C710.194 134.173 710.942 132.903 711.473 131.254C712.004 129.605 712.269 127.643 712.269 125.369C712.269 123.076 712.004 121.114 711.473 119.484C710.942 117.835 710.194 116.565 709.227 115.674C708.261 114.783 707.114 114.338 705.787 114.338C704.384 114.338 703.181 114.783 702.176 115.674C701.172 116.565 700.404 117.835 699.873 119.484C699.343 121.114 699.077 123.076 699.077 125.369C699.077 127.643 699.343 129.605 699.873 131.254C700.404 132.903 701.172 134.173 702.176 135.064C703.181 135.955 704.384 136.4 705.787 136.4ZM748.765 88.9774V147.204H733.072V88.9774H748.765ZM767.329 147.886C764.543 147.886 762.079 147.431 759.937 146.522C757.814 145.593 756.146 144.19 754.933 142.314C753.72 140.437 753.113 138.049 753.113 135.149C753.113 132.761 753.521 130.723 754.336 129.037C755.151 127.331 756.288 125.938 757.748 124.857C759.207 123.777 760.903 122.952 762.837 122.384C764.789 121.815 766.893 121.446 769.148 121.275C771.593 121.085 773.555 120.858 775.034 120.593C776.531 120.308 777.611 119.92 778.275 119.427C778.938 118.915 779.27 118.242 779.27 117.408V117.295C779.27 116.157 778.834 115.285 777.962 114.679C777.09 114.072 775.972 113.769 774.607 113.769C773.11 113.769 771.887 114.101 770.94 114.764C770.011 115.409 769.452 116.404 769.262 117.749H754.819C755.009 115.096 755.852 112.651 757.35 110.414C758.866 108.159 761.074 106.358 763.974 105.012C766.874 103.648 770.494 102.965 774.835 102.965C777.962 102.965 780.767 103.335 783.25 104.074C785.733 104.794 787.846 105.809 789.59 107.116C791.334 108.405 792.661 109.922 793.571 111.665C794.499 113.39 794.964 115.267 794.964 117.295V147.204H780.293V141.063H779.952C779.08 142.693 778.019 144.01 776.768 145.015C775.536 146.019 774.124 146.749 772.532 147.204C770.959 147.659 769.224 147.886 767.329 147.886ZM772.446 137.992C773.641 137.992 774.759 137.746 775.801 137.253C776.863 136.76 777.725 136.05 778.388 135.121C779.052 134.192 779.384 133.064 779.384 131.737V128.098C778.967 128.269 778.521 128.43 778.047 128.582C777.592 128.733 777.1 128.875 776.569 129.008C776.057 129.141 775.507 129.264 774.92 129.378C774.351 129.491 773.754 129.596 773.129 129.69C771.916 129.88 770.921 130.193 770.144 130.629C769.385 131.046 768.817 131.567 768.438 132.192C768.078 132.799 767.897 133.481 767.897 134.239C767.897 135.452 768.324 136.381 769.177 137.026C770.03 137.67 771.12 137.992 772.446 137.992ZM816.555 122.64V147.204H800.861V103.534H815.759V111.836H816.214C817.161 109.069 818.829 106.898 821.218 105.325C823.625 103.752 826.43 102.965 829.633 102.965C832.723 102.965 835.405 103.676 837.679 105.098C839.973 106.5 841.745 108.434 842.996 110.898C844.266 113.362 844.891 116.176 844.872 119.342V147.204H829.178V122.64C829.197 120.479 828.648 118.782 827.529 117.55C826.43 116.318 824.895 115.702 822.923 115.702C821.635 115.702 820.507 115.987 819.54 116.555C818.593 117.105 817.863 117.901 817.351 118.944C816.839 119.967 816.574 121.199 816.555 122.64ZM863.187 147.886C860.401 147.886 857.937 147.431 855.795 146.522C853.672 145.593 852.004 144.19 850.791 142.314C849.578 140.437 848.971 138.049 848.971 135.149C848.971 132.761 849.379 130.723 850.194 129.037C851.009 127.331 852.146 125.938 853.606 124.857C855.065 123.777 856.761 122.952 858.695 122.384C860.647 121.815 862.751 121.446 865.006 121.275C867.451 121.085 869.413 120.858 870.892 120.593C872.389 120.308 873.469 119.92 874.133 119.427C874.796 118.915 875.128 118.242 875.128 117.408V117.295C875.128 116.157 874.692 115.285 873.82 114.679C872.948 114.072 871.83 113.769 870.465 113.769C868.968 113.769 867.745 114.101 866.798 114.764C865.869 115.409 865.31 116.404 865.12 117.749H850.677C850.867 115.096 851.71 112.651 853.208 110.414C854.724 108.159 856.932 106.358 859.832 105.012C862.732 103.648 866.352 102.965 870.693 102.965C873.82 102.965 876.625 103.335 879.108 104.074C881.591 104.794 883.704 105.809 885.448 107.116C887.192 108.405 888.519 109.922 889.429 111.665C890.357 113.39 890.822 115.267 890.822 117.295V147.204H876.151V141.063H875.81C874.938 142.693 873.877 144.01 872.626 145.015C871.394 146.019 869.982 146.749 868.39 147.204C866.816 147.659 865.082 147.886 863.187 147.886ZM868.304 137.992C869.498 137.992 870.617 137.746 871.659 137.253C872.721 136.76 873.583 136.05 874.246 135.121C874.91 134.192 875.242 133.064 875.242 131.737V128.098C874.825 128.269 874.379 128.43 873.905 128.582C873.45 128.733 872.958 128.875 872.427 129.008C871.915 129.141 871.365 129.264 870.778 129.378C870.209 129.491 869.612 129.596 868.987 129.69C867.774 129.88 866.779 130.193 866.001 130.629C865.243 131.046 864.675 131.567 864.296 132.192C863.935 132.799 863.755 133.481 863.755 134.239C863.755 135.452 864.182 136.381 865.035 137.026C865.888 137.67 866.978 137.992 868.304 137.992Z" fill="url(#paint0_linear_2_4603)"/>
<defs>
<linearGradient id="paint0_linear_2_4603" x1="333.003" y1="147.204" x2="897.436" y2="74.1478" gradientUnits="userSpaceOnUse">
<stop stop-color="#EB5BE5"/>
<stop offset="1" stop-color="#DDBBDB"/>
</linearGradient>
</defs>
</svg>
