<svg width="1215" height="1189" viewBox="0 0 1215 1189" fill="none" xmlns="http://www.w3.org/2000/svg">
<path opacity="0.04" d="M718.623 6.99757C771.951 -4.392 827.294 13.6561 863.656 54.2941L1017.34 226.053L1017.34 226.058L1017.35 226.064L1171.73 397.191C1208.26 437.68 1220.3 494.632 1203.29 546.441L1131.38 765.413L1131.38 765.428L1060.37 984.693C1043.57 1036.57 1000.27 1075.48 946.896 1086.65L721.307 1133.86L721.3 1133.86L721.292 1133.86L495.899 1182C442.571 1193.39 387.228 1175.34 350.866 1134.71L197.184 962.947L197.179 962.941L197.174 962.937L42.7873 791.809C6.25974 751.32 -5.78113 694.368 11.2318 642.559L83.137 423.587L83.1418 423.572L154.15 204.307C170.95 152.429 214.251 113.524 267.625 102.353L493.215 55.139L493.222 55.1371L493.229 55.1364L718.623 6.99757Z" stroke="#EB5BE5" stroke-width="7.28036"/>
</svg>
