<svg width="1744" height="1703" viewBox="0 0 1744 1703" fill="none" xmlns="http://www.w3.org/2000/svg">
<path opacity="0.04" d="M1066.53 5.21706C1120.5 -6.30779 1176.5 11.9536 1213.29 53.0743L1457.1 325.566L1457.11 325.571L1702.04 597.06C1739 638.029 1751.18 695.658 1733.97 748.083L1619.89 1095.48L1619.89 1095.48L1507.24 1443.34C1490.24 1495.84 1446.42 1535.2 1392.41 1546.51L1034.52 1621.41L1034.52 1621.41L676.935 1697.78C622.974 1709.31 566.973 1691.05 530.18 1649.93L286.366 1377.43L286.361 1377.43L41.4318 1105.94C4.4705 1064.97 -7.71434 1007.34 9.50053 954.918L123.578 607.523L123.58 607.516L236.232 259.657C253.232 207.162 297.048 167.795 351.056 156.492L708.947 81.5889L708.954 81.5874L1066.53 5.21706Z" stroke="#EB5BE5" stroke-width="3.64018"/>
</svg>
