<svg width="1577" height="1541" viewBox="0 0 1577 1541" fill="none" xmlns="http://www.w3.org/2000/svg">
<path opacity="0.04" d="M964.701 4.71823C1013.51 -5.70595 1064.16 10.8125 1097.44 48.0068L1317.98 294.48L1317.98 294.486L1539.52 540.052C1572.96 577.11 1583.98 629.235 1568.41 676.654L1465.22 990.879L1465.22 990.885L1363.32 1305.53C1347.95 1353.01 1308.32 1388.62 1259.46 1398.84L935.745 1466.6L935.739 1466.6L612.3 1535.68C563.491 1546.1 512.838 1529.58 479.558 1492.39L259.023 1245.91L259.019 1245.91L37.4757 1000.34C4.04343 963.286 -6.97768 911.159 8.59352 863.74L111.778 549.515L111.78 549.509L213.676 234.864C229.053 187.382 268.685 151.775 317.536 141.55L641.256 73.7991L641.261 73.7969L964.701 4.71823Z" stroke="#EB5BE5" stroke-width="3.29235"/>
</svg>
