<svg width="575" height="565" viewBox="0 0 575 565" fill="none" xmlns="http://www.w3.org/2000/svg">
<path d="M316.428 2.59965C357.733 -6.22216 400.599 7.75687 428.763 39.2331L486.38 103.627L544.26 167.784C572.553 199.144 581.879 243.257 568.702 283.385L541.744 365.48L515.123 447.684C502.11 487.866 468.571 518 427.23 526.652L342.655 544.353L258.153 562.4C216.848 571.222 173.982 557.243 145.818 525.767L88.2014 461.373L30.321 397.216C2.02846 365.856 -7.29835 321.743 5.87906 281.615L32.8372 199.52L59.4584 117.316C72.4711 77.1338 106.01 47.0002 147.351 38.3479L231.926 20.6472L316.428 2.59965Z" fill="#101010"/>
</svg>
