<svg width="1099" height="1076" viewBox="0 0 1099 1076" fill="none" xmlns="http://www.w3.org/2000/svg">
<path opacity="0.04" d="M650.269 6.33227C698.525 -3.97394 748.604 12.3572 781.506 49.1298L920.572 204.551L920.581 204.561L1060.28 359.412C1093.34 396.049 1104.23 447.584 1088.84 494.465L1023.77 692.61L1023.77 692.609L1023.77 692.623L959.512 891.033C944.31 937.976 905.127 973.181 856.83 983.289L652.698 1026.01L652.685 1026.01L448.73 1069.57C400.474 1079.88 350.396 1063.55 317.493 1026.78L178.428 871.354L178.419 871.344L38.7171 716.495C5.66408 679.857 -5.23195 628.322 10.1626 581.441L75.2298 383.296L75.234 383.283L139.487 184.873C154.689 137.93 193.873 102.726 242.17 92.6176L446.302 49.8942L446.315 49.8914L650.269 6.33227Z" stroke="#EB5BE5" stroke-width="6.58471"/>
</svg>
