<svg width="24" height="24" viewBox="0 0 24 24" fill="none" xmlns="http://www.w3.org/2000/svg">
<path fill-rule="evenodd" clip-rule="evenodd" d="M1.20819 24C0.340615 24 -0.170671 23.0296 0.321813 22.3177L6.70047 13.0973C7.14691 12.452 7.14423 11.5982 6.69374 10.9556L0.195995 1.68778C-0.302707 0.976471 0.20789 0 1.07853 0H7.10301C7.46625 0 7.80501 0.182554 8.00391 0.485494L11.086 5.17965C11.5136 5.83099 12.473 5.82603 12.8938 5.17031L15.8947 0.494832C16.0925 0.186529 16.4344 0 16.8016 0H22.3675C23.2411 0 23.751 0.98237 23.2463 1.69308L16.8816 10.6555C16.422 11.3026 16.4197 12.1676 16.8753 12.8177C17.459 13.6506 18.0585 14.5078 18.6663 15.3768L18.6674 15.3784L18.6688 15.3803C20.2787 17.6821 21.9463 20.0663 23.531 22.3019C24.0359 23.0144 23.5254 24 22.6502 24H16.6962C16.3336 24 15.9955 23.8182 15.7964 23.5162L12.5457 18.5859C12.1236 17.9456 11.1857 17.9409 10.765 18.5821C10.2181 19.4156 9.63287 20.3233 9.05897 21.2134L9.05868 21.2138L9.05653 21.2171C8.53837 22.0208 8.02954 22.8099 7.56673 23.5169C7.36884 23.8192 7.0311 24 6.66896 24H1.20819Z" fill="#DDDDDD"/>
</svg>
